<?xml version="1.0" encoding="utf-8"?>
<!-- Generator: Adobe Illustrator 28.3.0, SVG Export Plug-In . SVG Version: 6.00 Build 0)  -->
<svg version="1.1" id="Agrupar_1_00000160170252409693442730000006818645144076671931_"
	 xmlns="http://www.w3.org/2000/svg" xmlns:xlink="http://www.w3.org/1999/xlink" x="0px" y="0px" viewBox="0 0 693 291"
	 style="enable-background:new 0 0 693 291;" xml:space="preserve">
<g id="UBÁ">
	<g>
		<path fill="#fff" d="M377.18,105.38c0,10.67-5.74,15.15-13.77,15.15c-8.03,0-13.77-4.79-13.77-15.61V39.99h-35.89v64.62
			c0,32.31,19.83,45.76,49.33,45.76c29.66,0,49.81-13.29,49.81-46.38v-64h-35.72V105.38z M518.27,117.43
			c0-14.22-9.02-21.49-21.3-25.35c10.65-4.17,18.19-12.06,18.19-24.11v-0.77c0-7.88-2.79-13.6-7.05-17.62
			c-7.05-6.49-17.53-9.58-32.44-9.58h-52.6V148.2h51.78c29.17,0,43.42-12.83,43.42-30.14V117.43z M457.47,66.58h11.64
			c7.37,0,11.47,2.78,11.47,8.04v0.16c0,5.1-3.93,7.88-11.47,7.88h-11.64V66.58z M482.87,113.26c0,4.95-4.09,8.35-11.95,8.35h-13.44
			v-16.85h13.44c7.86,0,11.95,3.4,11.95,8.35V113.26z M611.68,17.42l-34.74-6.95l-13.77,22.88h24.74L611.68,17.42z M594.79,39.37
			H557.6L517.94,148.2h36.87l4.75-15.46h32.45l4.92,15.46h37.53L594.79,39.37z M567.27,108l8.52-28.13l8.68,28.13H567.27z"/>
	</g>
</g>
<g id="agência">
	<g>
		<path fill="#fff" d="M343.2,190.79c-4.15,0-7.82,0.42-11.02,1.25c-3.2,0.84-6.37,1.98-9.49,3.44l2.51,6.88c2.62-1.24,5.29-2.24,8.02-3
			c2.73-0.76,5.76-1.15,9.11-1.15c5.31,0,9.44,1.29,12.39,3.87c2.95,2.58,4.42,6.42,4.42,11.51v1.96c-2.55-0.73-5.17-1.31-7.86-1.75
			c-2.69-0.44-5.86-0.65-9.49-0.65c-3.57,0-6.82,0.4-9.77,1.2c-2.95,0.8-5.49,1.96-7.64,3.49c-2.15,1.53-3.8,3.44-4.97,5.73
			c-1.16,2.29-1.75,4.93-1.75,7.91c0,2.98,0.6,5.57,1.8,7.75c1.2,2.18,2.8,4.02,4.8,5.51c2,1.49,4.26,2.6,6.77,3.33
			c2.51,0.73,5.07,1.09,7.69,1.09c5.02,0,9.18-0.98,12.49-2.95c3.31-1.96,5.95-4.22,7.91-6.77v8.51h8.08v-34.48
			c0-7.49-2.07-13.15-6.22-16.97C356.84,192.7,350.91,190.79,343.2,190.79z M359.24,227.24c0,2.26-0.49,4.31-1.47,6.17
			c-0.98,1.86-2.32,3.46-4.02,4.8c-1.71,1.35-3.7,2.4-5.98,3.16c-2.28,0.76-4.73,1.15-7.34,1.15c-1.89,0-3.68-0.25-5.38-0.76
			c-1.71-0.51-3.21-1.25-4.51-2.24c-1.31-0.98-2.34-2.16-3.1-3.55c-0.76-1.38-1.14-2.98-1.14-4.8c0-3.64,1.41-6.51,4.24-8.62
			c2.83-2.11,6.89-3.16,12.18-3.16c3.48,0,6.58,0.26,9.3,0.76c2.72,0.51,5.13,1.06,7.23,1.64V227.24z M424.94,201.7
			c-1.16-1.53-2.47-2.98-3.93-4.37c-1.46-1.38-3.07-2.58-4.86-3.6c-1.78-1.02-3.78-1.84-6-2.46c-2.22-0.62-4.64-0.93-7.26-0.93
			c-3.35,0-6.62,0.62-9.82,1.86c-3.2,1.24-6.04,3-8.51,5.29c-2.47,2.29-4.46,5.09-5.95,8.4c-1.49,3.31-2.24,7.04-2.24,11.19
			s0.75,7.86,2.24,11.13c1.49,3.27,3.47,6.06,5.95,8.35c2.47,2.29,5.29,4.04,8.46,5.24c3.16,1.2,6.46,1.8,9.88,1.8
			c5.16,0,9.53-1.16,13.1-3.49c3.56-2.33,6.58-5.13,9.06-8.4v6.66c0,6.62-1.86,11.62-5.57,15c-3.71,3.38-8.69,5.07-14.95,5.07
			c-4.08,0-7.89-0.62-11.46-1.86c-3.57-1.24-6.98-3.02-10.26-5.35l-3.82,6.55c3.78,2.62,7.82,4.58,12.11,5.89
			c4.29,1.31,8.8,1.96,13.53,1.96c4.37,0,8.31-0.58,11.84-1.75c3.53-1.16,6.55-2.89,9.06-5.18c2.51-2.29,4.44-5.15,5.78-8.57
			c1.35-3.42,2.02-7.42,2.02-12v-46.6h-8.4V201.7z M423.52,224.89c-1.16,2.36-2.71,4.38-4.64,6.06c-1.93,1.67-4.13,2.97-6.6,3.87
			c-2.47,0.91-5.06,1.36-7.75,1.36c-2.62,0-5.11-0.45-7.48-1.36c-2.36-0.91-4.44-2.22-6.22-3.93c-1.78-1.71-3.2-3.75-4.26-6.11
			c-1.06-2.36-1.58-5-1.58-7.91c0-2.91,0.51-5.55,1.53-7.91c1.02-2.36,2.42-4.38,4.2-6.06c1.78-1.67,3.86-2.95,6.22-3.82
			c2.36-0.87,4.89-1.31,7.58-1.31c2.69,0,5.27,0.46,7.75,1.36c2.47,0.91,4.67,2.2,6.6,3.87c1.93,1.67,3.47,3.69,4.64,6.06
			c1.16,2.36,1.75,5,1.75,7.91C425.26,219.89,424.68,222.53,423.52,224.89z M469.79,175.73l8.18,7.31h7.2l-11.57-14.3h-7.42
			l-11.57,14.3h6.98L469.79,175.73z M489.65,199.08c-2.26-2.69-5.02-4.82-8.29-6.38c-3.27-1.56-6.98-2.35-11.13-2.35
			c-3.93,0-7.55,0.76-10.86,2.29c-3.31,1.53-6.17,3.62-8.57,6.27c-2.4,2.66-4.27,5.78-5.62,9.38c-1.35,3.6-2.02,7.44-2.02,11.51
			c0,4.37,0.76,8.37,2.27,12c1.51,3.64,3.55,6.75,6.11,9.33c2.56,2.58,5.55,4.58,8.97,6c3.42,1.42,7.06,2.13,10.91,2.13
			c5.38,0,9.89-0.97,13.53-2.89c3.64-1.93,6.88-4.49,9.71-7.69l-5.24-4.69c-2.33,2.4-4.89,4.33-7.69,5.78
			c-2.8,1.46-6.17,2.18-10.09,2.18c-2.47,0-4.84-0.42-7.09-1.25c-2.26-0.84-4.29-2.07-6.11-3.71c-1.82-1.64-3.31-3.64-4.47-6
			c-1.16-2.36-1.89-5.07-2.18-8.13h44.63c0.07-0.51,0.11-0.98,0.11-1.42c0-0.44,0-0.84,0-1.2c0-4.15-0.58-8.04-1.75-11.68
			C493.61,204.94,491.9,201.77,489.65,199.08z M451.78,216.65c0.29-2.76,0.94-5.31,1.95-7.64c1.01-2.33,2.31-4.35,3.9-6.06
			c1.59-1.71,3.43-3.06,5.53-4.04c2.1-0.98,4.38-1.47,6.83-1.47c2.82,0,5.3,0.53,7.43,1.58c2.13,1.06,3.94,2.46,5.42,4.2
			c1.48,1.75,2.64,3.78,3.47,6.11c0.83,2.33,1.36,4.77,1.57,7.31H451.78z M549.4,196.63c-1.86-2-4.11-3.55-6.77-4.64
			c-2.66-1.09-5.69-1.64-9.11-1.64c-4.87,0-8.84,1.07-11.89,3.22c-3.06,2.15-5.53,4.75-7.42,7.8v-9.82h-8.4v56.42h8.4v-32.3
			c0-2.62,0.42-5.02,1.25-7.2c0.84-2.18,2.02-4.05,3.55-5.62c1.53-1.56,3.33-2.76,5.4-3.6c2.07-0.84,4.31-1.25,6.71-1.25
			c5.02,0,8.88,1.53,11.57,4.58c2.69,3.06,4.04,7.2,4.04,12.44v32.96h8.4v-35.03c0-3.35-0.49-6.4-1.47-9.17
			C552.67,201.01,551.25,198.63,549.4,196.63z M603.09,239.24c-2.8,1.6-6.02,2.4-9.66,2.4c-2.98,0-5.73-0.56-8.24-1.69
			c-2.51-1.13-4.69-2.69-6.55-4.68c-1.86-1.99-3.31-4.34-4.37-7.02c-1.06-2.69-1.58-5.55-1.58-8.6c0-3.05,0.51-5.89,1.53-8.54
			c1.02-2.65,2.44-4.97,4.26-6.97c1.82-1.99,3.96-3.56,6.44-4.68c2.47-1.13,5.13-1.69,7.97-1.69c3.86,0,7.11,0.84,9.77,2.51
			c2.65,1.67,5.11,3.67,7.37,6l5.57-5.89c-1.31-1.38-2.73-2.69-4.26-3.93c-1.53-1.24-3.2-2.31-5.02-3.22
			c-1.82-0.91-3.82-1.62-6-2.13c-2.18-0.51-4.62-0.76-7.31-0.76c-4.15,0-7.98,0.78-11.51,2.35c-3.53,1.57-6.59,3.69-9.17,6.38
			c-2.58,2.69-4.6,5.84-6.06,9.44c-1.46,3.6-2.18,7.4-2.18,11.4c0,4,0.73,7.79,2.18,11.35c1.45,3.57,3.47,6.68,6.06,9.33
			c2.58,2.66,5.64,4.77,9.17,6.33c3.53,1.56,7.37,2.35,11.51,2.35c5.31,0,9.77-1.03,13.37-3.1s6.82-4.71,9.66-7.92l-5.35-5.02
			C608.41,235.64,605.89,237.64,603.09,239.24z M625.18,247.97h8.4v-56.42h-8.4V247.97z M624.64,179.22h9.6v-9.28h-9.6V179.22z
			 M686.73,196.52c-4.15-3.82-10.08-5.73-17.79-5.73c-4.15,0-7.82,0.42-11.02,1.25c-3.2,0.84-6.37,1.98-9.49,3.44l2.51,6.88
			c2.62-1.24,5.29-2.24,8.02-3c2.73-0.76,5.76-1.15,9.11-1.15c5.31,0,9.44,1.29,12.39,3.87c2.95,2.58,4.42,6.42,4.42,11.51v1.96
			c-2.55-0.73-5.17-1.31-7.86-1.75c-2.69-0.44-5.86-0.65-9.49-0.65c-3.57,0-6.82,0.4-9.77,1.2c-2.95,0.8-5.49,1.96-7.64,3.49
			c-2.15,1.53-3.8,3.44-4.97,5.73c-1.16,2.29-1.75,4.93-1.75,7.91c0,2.98,0.6,5.57,1.8,7.75c1.2,2.18,2.8,4.02,4.8,5.51
			c2,1.49,4.26,2.6,6.77,3.33s5.07,1.09,7.69,1.09c5.02,0,9.18-0.98,12.49-2.95c3.31-1.96,5.95-4.22,7.91-6.77v8.51h8.08v-34.48
			C692.95,205.99,690.88,200.34,686.73,196.52z M684.99,227.24c0,2.26-0.49,4.31-1.47,6.17c-0.98,1.86-2.32,3.46-4.02,4.8
			c-1.71,1.35-3.7,2.4-5.98,3.16c-2.28,0.76-4.73,1.15-7.34,1.15c-1.89,0-3.68-0.25-5.38-0.76c-1.71-0.51-3.21-1.25-4.51-2.24
			c-1.31-0.98-2.34-2.16-3.1-3.55c-0.76-1.38-1.14-2.98-1.14-4.8c0-3.64,1.41-6.51,4.24-8.62c2.83-2.11,6.89-3.16,12.18-3.16
			c3.48,0,6.58,0.26,9.3,0.76c2.72,0.51,5.13,1.06,7.23,1.64V227.24z"/>
	</g>
</g>
<g id="_x2F__copiar">
	<g>
		<path fill="#fff" d="M276.22,127.87c-4.21-4.6-9.18-9.05-14.91-13.36c-5.72-4.31-12.02-7.63-18.86-9.98c3.13-6.56,5.19-13.38,6.16-20.48
			c0.98-7.09,1.35-13.75,1.11-19.96c-0.25-6.21-1.01-13.29-2.28-21.21c-7.93-1.27-15-2.05-21.22-2.35
			c-6.22-0.29-12.88,0.07-19.97,1.1c-7.1,1.03-13.93,3.06-20.49,6.09c-2.35-6.75-5.7-12.99-10.06-18.72
			c-4.36-5.72-8.82-10.72-13.37-14.97c-4.55-4.26-10.1-8.74-16.66-13.43c-6.56,4.7-12.12,9.18-16.67,13.43
			c-4.55,4.26-9.01,9.25-13.36,14.97c-4.35,5.72-7.71,11.96-10.06,18.72c-6.56-3.13-13.39-5.18-20.49-6.16
			c-7.09-0.98-13.76-1.34-19.97-1.1c-6.22,0.24-13.29,1-21.22,2.27c-1.28,8.03-2.03,15.15-2.28,21.36
			c-0.25,6.22,0.12,12.87,1.1,19.96c0.98,7.1,3.03,13.87,6.17,20.33c-6.85,2.45-13.14,5.82-18.87,10.13
			c-5.72,4.31-10.69,8.76-14.89,13.36c-4.21,4.6-8.66,10.18-13.37,16.73c4.7,6.46,9.16,11.99,13.37,16.59
			c4.21,4.6,9.17,9.05,14.89,13.36c5.73,4.31,11.97,7.68,18.73,10.13c-3.03,6.46-5.06,13.24-6.09,20.33
			c-1.03,7.1-1.4,13.78-1.11,20.04c0.3,6.26,1.07,13.36,2.35,21.28c7.93,1.27,15,2.03,21.22,2.28c6.21,0.24,12.88-0.12,19.97-1.1
			c7.1-0.98,13.92-3.03,20.49-6.17c2.35,6.75,5.68,12.99,9.99,18.72c4.3,5.72,8.76,10.72,13.36,14.97
			c4.6,4.26,10.18,8.74,16.74,13.43c6.46-4.7,11.99-9.18,16.59-13.43c4.6-4.26,9.06-9.25,13.36-14.97
			c4.31-5.73,7.68-11.97,10.13-18.72c6.46,3.13,13.23,5.19,20.34,6.17c7.09,0.98,13.75,1.34,19.97,1.1c6.22-0.25,13.34-1,21.37-2.28
			c1.27-7.93,2.02-15.02,2.28-21.28c0.24-6.26-0.13-12.94-1.11-20.04c-0.98-7.09-3.03-13.87-6.16-20.33
			c6.85-2.44,13.15-5.82,18.86-10.13c5.73-4.3,10.7-8.76,14.91-13.36c4.21-4.6,8.66-10.13,13.36-16.59
			C284.88,138.05,280.42,132.47,276.22,127.87z M253.29,158.27c-3.47,3.79-7.57,7.46-12.29,11.01c-4.71,3.55-9.91,6.33-15.55,8.35
			c2.58,5.33,4.28,10.91,5.08,16.76c0.81,5.85,1.11,11.36,0.91,16.52c-0.21,5.16-0.83,11.01-1.88,17.55
			c-6.62,1.05-12.49,1.67-17.62,1.88c-5.13,0.2-10.61-0.1-16.46-0.91c-5.86-0.81-11.45-2.5-16.77-5.08
			c-2.02,5.57-4.8,10.71-8.35,15.43c-3.55,4.72-7.22,8.84-11.02,12.34c-3.8,3.51-8.35,7.2-13.68,11.07
			c-5.4-3.87-10.01-7.56-13.8-11.07c-3.8-3.51-7.47-7.62-11.02-12.34c-3.55-4.72-6.3-9.86-8.24-15.43
			c-5.41,2.58-11.04,4.28-16.89,5.08c-5.85,0.81-11.34,1.11-16.46,0.91c-5.13-0.2-10.96-0.83-17.49-1.88
			c-1.06-6.54-1.7-12.38-1.94-17.55c-0.24-5.16,0.07-10.67,0.91-16.52c0.84-5.85,2.52-11.44,5.02-16.76
			c-5.57-2.01-10.71-4.8-15.44-8.35c-4.72-3.55-8.81-7.22-12.28-11.01c-3.47-3.79-7.14-8.35-11.02-13.68
			c3.88-5.41,7.55-10,11.02-13.8c3.47-3.79,7.56-7.46,12.28-11.01c4.73-3.55,9.91-6.33,15.56-8.35c-2.58-5.33-4.28-10.91-5.08-16.76
			C60,88.82,59.69,83.33,59.9,78.21c0.2-5.12,0.82-10.99,1.88-17.61c6.53-1.05,12.36-1.67,17.49-1.87c5.12-0.2,10.61,0.1,16.46,0.91
			c5.85,0.81,11.48,2.5,16.89,5.08c1.94-5.57,4.7-10.71,8.29-15.43c3.59-4.72,7.26-8.84,11.02-12.34c3.75-3.51,8.34-7.2,13.74-11.07
			c5.41,3.87,9.99,7.56,13.74,11.07c3.75,3.51,7.43,7.62,11.02,12.34c3.59,4.72,6.35,9.86,8.29,15.43c5.4-2.5,11.04-4.18,16.89-5.02
			c5.85-0.85,11.34-1.15,16.47-0.91c5.12,0.24,10.96,0.89,17.49,1.94c1.04,6.53,1.67,12.37,1.88,17.49
			c0.2,5.12-0.11,10.61-0.91,16.46c-0.8,5.85-2.5,11.48-5.08,16.88c5.64,1.94,10.84,4.68,15.55,8.23
			c4.73,3.55,8.82,7.22,12.29,11.01c3.47,3.79,7.14,8.39,11.01,13.8C260.43,149.92,256.76,154.48,253.29,158.27z"/>
	</g>
</g>
<g id="_x2F__copiar_2">
	<g>
		<path fill="#fff" d="M238.01,132.75c-2.98-3.25-6.49-6.4-10.55-9.45c-4.04-3.05-8.5-5.4-13.34-7.06c2.22-4.64,3.67-9.47,4.36-14.49
			c0.69-5.02,0.95-9.72,0.78-14.12c-0.18-4.39-0.71-9.4-1.61-15c-5.61-0.9-10.61-1.45-15.01-1.66c-4.4-0.21-9.11,0.05-14.13,0.78
			c-5.02,0.73-9.85,2.17-14.49,4.31c-1.66-4.78-4.03-9.19-7.11-13.24s-6.24-7.58-9.46-10.59c-3.22-3.01-7.15-6.18-11.79-9.5
			c-4.64,3.32-8.57,6.49-11.79,9.5c-3.22,3.01-6.37,6.54-9.45,10.59c-3.08,4.05-5.45,8.46-7.11,13.24
			c-4.64-2.21-9.47-3.67-14.49-4.36c-5.02-0.69-9.73-0.95-14.12-0.78c-4.4,0.17-9.4,0.71-15.01,1.61
			c-0.91,5.68-1.44,10.71-1.61,15.11c-0.18,4.4,0.08,9.1,0.78,14.12c0.69,5.02,2.15,9.81,4.36,14.38c-4.85,1.73-9.3,4.12-13.35,7.17
			c-4.05,3.05-7.56,6.2-10.54,9.45c-2.98,3.25-6.13,7.2-9.46,11.84c3.33,4.57,6.48,8.48,9.46,11.73c2.98,3.25,6.49,6.4,10.54,9.45
			c4.06,3.05,8.47,5.44,13.25,7.16c-2.14,4.57-3.58,9.36-4.31,14.38c-0.73,5.02-0.99,9.74-0.78,14.17s0.76,9.45,1.67,15.06
			c5.61,0.9,10.61,1.44,15.01,1.61c4.39,0.17,9.11-0.09,14.12-0.78c5.02-0.69,9.85-2.15,14.49-4.36c1.66,4.78,4.02,9.19,7.07,13.24
			c3.05,4.05,6.19,7.58,9.45,10.59c3.25,3.01,7.2,6.18,11.84,9.5c4.57-3.32,8.48-6.49,11.74-9.5c3.25-3.01,6.41-6.54,9.45-10.59
			c3.05-4.05,5.44-8.46,7.17-13.24c4.57,2.22,9.36,3.67,14.39,4.36c5.02,0.69,9.72,0.95,14.12,0.78c4.4-0.17,9.43-0.71,15.11-1.61
			c0.9-5.61,1.43-10.63,1.61-15.06c0.17-4.43-0.09-9.15-0.78-14.17c-0.69-5.02-2.14-9.81-4.36-14.38c4.84-1.73,9.3-4.12,13.34-7.16
			c4.06-3.04,7.57-6.19,10.55-9.45c2.98-3.25,6.12-7.17,9.45-11.73C244.14,139.94,240.99,136,238.01,132.75z M167.69,153.62
			c-3.46,0.28-7.27,0.76-11.42,1.45c-0.76,4.22-1.24,8.07-1.46,11.53c-2.63-2.29-5.68-4.64-9.14-7.06
			c-3.46,2.42-6.51,4.78-9.14,7.06c-0.28-3.46-0.77-7.3-1.46-11.53c-4.15-0.69-7.96-1.18-11.42-1.45c2.21-2.56,4.57-5.57,7.06-9.03
			c-2.49-3.46-4.85-6.51-7.06-9.14c3.46-0.28,7.27-0.76,11.42-1.45c0.69-4.22,1.18-8.03,1.46-11.42c2.63,2.22,5.68,4.57,9.14,7.06
			c3.46-2.49,6.51-4.84,9.14-7.06c0.21,3.39,0.69,7.2,1.46,11.42c4.15,0.69,7.96,1.18,11.42,1.45c-2.28,2.63-4.64,5.68-7.06,9.14
			C163.05,148.04,165.41,151.06,167.69,153.62z"/>
	</g>
</g>
</svg>
